<?xml version="1.0" encoding="UTF-8"?>
<svg id="Layer_1" data-name="Layer 1" xmlns="http://www.w3.org/2000/svg" version="1.1" xmlns:xlink="http://www.w3.org/1999/xlink" viewBox="0 0 476.3 506.9">
  <defs>
    <style>
      .cls-1 {
        isolation: isolate;
      }

      .cls-2, .cls-3, .cls-4 {
        fill: none;
      }

      .cls-2, .cls-5 {
        stroke-width: 0px;
      }

      .cls-6 {
        clip-path: url(#clippath-1);
      }

      .cls-3, .cls-4 {
        stroke: #fff;
        stroke-miterlimit: 10;
      }

      .cls-7 {
        clip-path: url(#clippath);
      }

      .cls-5 {
        fill: #fff;
      }

      .cls-4 {
        stroke-width: 2px;
      }
    </style>
    <clipPath id="clippath">
      <path class="cls-2" d="M335.3,495.4l-268-82.9c-19.6-6.1-30.6-26.9-24.5-46.5l49-158.4,15.2-128.3c6.1-19.6,132.9-99.2,152.5-93.1l180.8,170.2c19.6,6.1,30.6,26.9,24.5,46.5l-82.9,268c-6.1,19.6-26.9,30.6-46.5,24.5h0Z"/>
    </clipPath>
    <clipPath id="clippath-1">
      <path class="cls-2" d="M335.3,495.4l-268-82.9c-19.6-6.1-30.6-26.9-24.5-46.5l49-158.4,15.2-128.3c6.1-19.6,132.9-99.2,152.5-93.1l180.8,170.2c19.6,6.1,30.6,26.9,24.5,46.5l-82.9,268c-6.1,19.6-26.9,30.6-46.5,24.5h0Z"/>
    </clipPath>
  </defs>
  <rect class="cls-4" x="46.2" y="46.9" width="355" height="355" rx="37.2" ry="37.2" transform="translate(-56.8 371.8) rotate(-72.8)"/>
  <path class="cls-5" d="M161.1,73.7c3.5,0,7,.5,10.4,1.6l268,82.9c18.5,5.7,29,25.5,23.2,44l-82.9,268c-4.6,14.8-18.1,24.8-33.6,24.8s-7-.5-10.4-1.6l-268-82.9c-9-2.8-16.4-8.9-20.7-17.2-4.4-8.3-5.3-17.8-2.5-26.8L127.5,98.5c4.6-14.8,18.1-24.8,33.6-24.8h0M161.1,71.7c-15.9,0-30.6,10.3-35.5,26.2L42.7,366c-6.1,19.6,4.9,40.5,24.5,46.5l268,82.9c3.7,1.1,7.4,1.7,11,1.7,15.9,0,30.6-10.3,35.5-26.2l82.9-268c6.1-19.6-4.9-40.5-24.5-46.5L172.2,73.4c-3.7-1.1-7.4-1.7-11-1.7h0Z"/>
  <g class="cls-7">
    <image id="image" class="cls-1" width="2097" height="3140" transform="translate(87.1 34.6) scale(.2)" xlink:href="FotoWebsite-1.png"/>
  </g>
  <g class="cls-6">
    <image id="image-2" data-name="image" class="cls-1" width="2097" height="3140" transform="translate(87.1 34.6) scale(.2)" xlink:href="FotoWebsite-2.png"/>
  </g>
  <path class="cls-3" d="M88.6,217.7l-45.9,148.3c-6.1,19.6,4.9,40.5,24.5,46.5l268,82.9c19.6,6.1,40.5-4.9,46.5-24.5l82.9-268c6.1-19.6-4.9-40.5-24.5-46.5l-18.8-5.8"/>
</svg>