<?xml version="1.0" encoding="UTF-8"?>
<svg id="Layer_1" data-name="Layer 1" xmlns="http://www.w3.org/2000/svg" version="1.1" viewBox="0 0 512 512">
  <defs>
    <style>
      .cls-1 {
        fill: #fff;
        stroke-width: 0px;
      }
    </style>
  </defs>
  <path class="cls-1" d="M256,0c17.7,0,32,14.3,32,32v34.7c80.4,13.4,143.9,76.9,157.3,157.3h34.7c17.7,0,32,14.3,32,32s-14.3,32-32,32h-34.7c-13.4,80.4-76.9,143.9-157.3,157.3v34.7c0,17.7-14.3,32-32,32s-32-14.3-32-32v-34.7c-80.4-13.4-143.9-76.9-157.3-157.3h-34.7c-17.7,0-32-14.3-32-32s14.3-32,32-32h34.7c13.4-80.4,76.9-143.9,157.3-157.3v-34.7c0-17.7,14.3-32,32-32ZM128,256c0,70.7,57.3,128,128,128s128-57.3,128-128-57.3-128-128-128-128,57.3-128,128ZM256,176c44.2,0,80,35.8,80,80s-35.8,80-80,80-80-35.8-80-80,35.8-80,80-80Z"/>
</svg>