<?xml version="1.0" encoding="UTF-8"?>
<svg id="Layer_1" data-name="Layer 1" xmlns="http://www.w3.org/2000/svg" version="1.1" viewBox="0 0 142 153">
  <defs>
    <style>
      .cls-1 {
        fill: #000;
        stroke-width: 0px;
      }
    </style>
  </defs>
  <path class="cls-1" d="M29.2,113.5v-19.1c6.9-2.7,18.9,4.3,19.9-10.7h-24.8v-44.6h43.6c0,1.5.3,3.1.3,4.6,0,13.7,0,27.3,0,41,0,17.2-11.7,28.7-28.9,28.8-3.1,0-6.3,0-10,0Z"/>
  <path class="cls-1" d="M84.3,94c18.9-1.3,19.8-1.8,19.3-10.4h-24.2v-44.5h43.4c.1,1.4.3,2.8.3,4.3,0,13.8,0,27.6,0,41.5,0,16.9-11.7,28.4-28.7,28.6-3.3,0-6.6,0-10.2,0v-19.5Z"/>
</svg>