<?xml version="1.0" encoding="UTF-8"?>
<svg id="Layer_1" data-name="Layer 1" xmlns="http://www.w3.org/2000/svg" version="1.1" viewBox="0 0 142 153">
  <defs>
    <style>
      .cls-1 {
        fill: #000;
        stroke-width: 0px;
      }
    </style>
  </defs>
  <path class="cls-1" d="M63.9,32.1v19.1c-6.9,2.7-18.8-4.3-19.9,10.7h24.8v44.6H25.2c0-1.5-.3-3-.3-4.6,0-13.7,0-27.3,0-41,0-17.2,11.7-28.7,28.9-28.9,3.1,0,6.3,0,10,0Z"/>
  <path class="cls-1" d="M80.2,106.6c0-17.2-.7-34,.2-50.7.7-13,11.9-22.6,25.6-23.7,4.1-.3,8.3,0,13.1,0,0,3.4,0,6.5,0,9.6s0,6.3,0,9.3c-7.2,2.8-19.2-4.2-20,10.8h24.6v44.7h-43.4Z"/>
</svg>