<?xml version="1.0" encoding="UTF-8"?>
<svg id="Layer_1" data-name="Layer 1" xmlns="http://www.w3.org/2000/svg" version="1.1" viewBox="0 0 413.5 69">
    <defs>
        <style>
            .cls-1 {
            fill: #000;
            stroke-width: 0px;
            }
        </style>
    </defs>
    <path class="cls-1" d="M95.7,28.1h0c2.1,0,3.9,1.7,3.9,3.9v4.9c0,2.1-1.7,3.9-3.8,3.9-2.1,0-3.9-1.7-3.9-3.8,0,0,0,0,0-.1v-4.9c0-2.1,1.7-3.9,3.9-3.9h0"/>
    <path class="cls-1" d="M110,16.1h0c2.1,0,3.9,1.7,3.9,3.9h0v29c0,2.1-1.7,3.9-3.8,3.9-2.1,0-3.9-1.7-3.9-3.8,0,0,0,0,0-.1v-29c0-2.1,1.7-3.9,3.9-3.9h0"/>
    <path class="cls-1" d="M124.3,8h0c2.1,0,3.9,1.7,3.9,3.9v45.1c0,2.1-1.7,3.9-3.8,3.9-2.1,0-3.9-1.7-3.9-3.8,0,0,0,0,0-.1V11.9c0-2.1,1.7-3.9,3.9-3.9"/>
    <path class="cls-1" d="M138.6,12.1h0c2.1,0,3.9,1.7,3.9,3.9v37.1c0,2.1-1.7,3.9-3.8,3.9-2.1,0-3.9-1.7-3.9-3.8,0,0,0,0,0-.1V15.9c0-2.1,1.7-3.9,3.9-3.9"/>
    <path class="cls-1" d="M152.8,28.1h0c2.1,0,3.9,1.7,3.9,3.9h0v4.9c0,2.1-1.7,3.9-3.8,3.9-2.1,0-3.9-1.7-3.9-3.8,0,0,0,0,0-.1v-4.9c0-2.1,1.7-3.9,3.9-3.9h0"/>
    <path class="cls-1" d="M167.1,0h0c2.1,0,3.9,1.7,3.9,3.9v61.2c0,2.1-1.7,3.9-3.8,3.9-2.1,0-3.9-1.7-3.9-3.8,0,0,0,0,0-.1V3.9C163.2,1.7,165,0,167.1,0"/>
    <path class="cls-1" d="M181.4,28.1h0c2.1,0,3.9,1.7,3.9,3.9h0v4.9c0,2.1-1.7,3.9-3.8,3.9-2.1,0-3.9-1.7-3.9-3.8,0,0,0,0,0-.1v-4.9c0-2.1,1.7-3.9,3.9-3.9h0"/>
    <path class="cls-1" d="M195.6,0h0c2.1,0,3.9,1.7,3.9,3.9v61.2c0,2.1-1.7,3.9-3.8,3.9-2.1,0-3.9-1.7-3.9-3.8,0,0,0,0,0-.1V3.9C191.8,1.7,193.5,0,195.6,0c0,0,0,0,0,0"/>
    <path class="cls-1" d="M209.9,16.1h0c2.1,0,3.9,1.7,3.9,3.9v29c0,2.1-1.7,3.9-3.8,3.9-2.1,0-3.9-1.7-3.9-3.8,0,0,0,0,0-.1v-29c0-2.1,1.7-3.9,3.9-3.9"/>
    <path class="cls-1" d="M224.2,20.1h0c2.1,0,3.9,1.7,3.9,3.9h0v21c0,2.1-1.7,3.9-3.8,3.9-2.1,0-3.9-1.7-3.9-3.8,0,0,0,0,0-.1v-21c0-2.1,1.7-3.9,3.9-3.9h0"/>
    <path class="cls-1" d="M238.4,16.1h0c2.1,0,3.9,1.7,3.9,3.9h0v29c0,2.1-1.7,3.9-3.8,3.9-2.1,0-3.9-1.7-3.9-3.8,0,0,0,0,0-.1v-29c0-2.1,1.7-3.9,3.9-3.9h0"/>
    <path class="cls-1" d="M252.7,0h0c2.1,0,3.9,1.7,3.9,3.9v61.2c0,2.1-1.7,3.9-3.8,3.9-2.1,0-3.9-1.7-3.9-3.8,0,0,0,0,0-.1V3.9C248.9,1.7,250.6,0,252.7,0c0,0,0,0,0,0"/>
    <path class="cls-1" d="M267,24.1h0c2.1,0,3.9,1.7,3.9,3.9h0v13c0,2.1-1.7,3.9-3.8,3.9-2.1,0-3.9-1.7-3.9-3.8,0,0,0,0,0-.1v-13c0-2.1,1.7-3.9,3.9-3.9h0"/>
    <path class="cls-1" d="M281.3,20.1h0c2.1,0,3.9,1.7,3.9,3.9v21c0,2.1-1.7,3.9-3.8,3.9-2.1,0-3.9-1.7-3.9-3.8,0,0,0,0,0-.1v-21c0-2.1,1.7-3.9,3.9-3.9"/>
    <path class="cls-1" d="M295.5,24.1h0c2.1,0,3.9,1.7,3.9,3.9h0v13c0,2.1-1.7,3.9-3.8,3.9-2.1,0-3.9-1.7-3.9-3.8h0v-13c0-2.1,1.7-3.9,3.9-3.9h0"/>
    <path class="cls-1" d="M309.8,28.1h0c2.1,0,3.9,1.7,3.9,3.9v4.9c0,2.1-1.7,3.9-3.8,3.9-2.1,0-3.9-1.7-3.9-3.8,0,0,0,0,0-.1v-4.9c0-2.1,1.7-3.9,3.9-3.9"/>
    <path class="cls-1" d="M324.1,24.1h0c2.1,0,3.9,1.7,3.9,3.9h0v13c0,2.1-1.7,3.9-3.8,3.9-2.1,0-3.9-1.7-3.9-3.8h0v-13c0-2.1,1.7-3.9,3.9-3.9h0"/>
    <path class="cls-1" d="M338.3,0h0c2.1,0,3.9,1.7,3.9,3.9v61.2c0,2.1-1.7,3.9-3.8,3.9-2.1,0-3.9-1.7-3.9-3.8,0,0,0,0,0-.1V3.9c0-2.1,1.7-3.9,3.9-3.9"/>
    <path class="cls-1" d="M352.6,0h0c2.1,0,3.9,1.7,3.9,3.9h0v61.2c0,2.1-1.7,3.9-3.8,3.9-2.1,0-3.9-1.7-3.9-3.8,0,0,0,0,0-.1V3.9C348.7,1.7,350.5,0,352.6,0c0,0,0,0,0,0"/>
    <path class="cls-1" d="M366.9,28.1h0c2.1,0,3.9,1.7,3.9,3.9v4.9c0,2.1-1.7,3.9-3.8,3.9-2.1,0-3.9-1.7-3.9-3.8,0,0,0,0,0-.1v-4.9c0-2.1,1.7-3.9,3.9-3.9h0"/>
    <path class="cls-1" d="M381.1,8h0c2.1,0,3.9,1.7,3.9,3.9h0v45.1c0,2.1-1.7,3.9-3.8,3.9-2.1,0-3.9-1.7-3.9-3.8,0,0,0,0,0-.1V11.9c0-2.1,1.7-3.9,3.9-3.9h0"/>
    <path class="cls-1" d="M395.4,12.1h0c2.1,0,3.9,1.7,3.9,3.9v37.1c0,2.1-1.7,3.9-3.8,3.9-2.1,0-3.9-1.7-3.9-3.8,0,0,0,0,0-.1V15.9c0-2.1,1.7-3.9,3.9-3.9"/>
    <path class="cls-1" d="M409.7,28.1h0c2.1,0,3.9,1.7,3.9,3.9v4.9c0,2.1-1.7,3.9-3.8,3.9-2.1,0-3.9-1.7-3.9-3.8,0,0,0,0,0-.1v-4.9c0-2.1,1.7-3.9,3.9-3.9"/>
    <path class="cls-1" d="M34.5,0c19,0,34.5,15.4,34.5,34.5s-15.4,34.5-34.5,34.5S0,53.5,0,34.5,15.4,0,34.5,0h0M50.2,49.6c.6-.9.3-2.1-.5-2.8-.2-.1-.4-.2-.6-.4-2.1-1.3-4.4-2.3-6.8-3.1-4.3-1.4-8.8-2.1-13.3-2.1-1.5,0-3.1.1-4.6.3-2.7.2-5.5.7-8.1,1.3-.2,0-.4.1-.6.2-1,.4-1.5,1.4-1.3,2.4.2,1,1,1.8,2.1,1.7.3,0,.7,0,1-.1,3.3-.7,6.6-1.2,9.9-1.3,2.6-.1,5.2,0,7.8.4,4.2.6,8.2,2,11.8,4.1.2.1.4.2.6.3,1,.4,2.1,0,2.7-.8M54.5,40.2c.8-1.3.4-2.9-.9-3.7l-.4-.2c-2.7-1.6-5.5-2.9-8.5-3.8-5.8-1.9-11.9-2.7-18-2.4-2.9,0-5.7.4-8.5,1.1-1.1.3-2.3.6-3.4.9-1.1.3-1.8,1.3-1.8,2.5,0,1.1.6,2.1,1.7,2.5.6.2,1.3.2,1.9,0,3.9-1.1,7.9-1.7,11.9-1.7,3,0,6.1.3,9.1.8,3.8.7,7.5,1.9,11,3.7.8.4,1.5.8,2.2,1.2,1.2.8,2.9.4,3.7-.8M54.9,30.5c1.5.9,3.5.4,4.4-1.1.3-.5.5-1.1.5-1.7,0-.2,0-.5,0-.7-.2-.9-.8-1.7-1.6-2.1-2.3-1.4-4.8-2.5-7.4-3.3-6.2-2.1-12.8-3.2-19.4-3.3-2.7,0-5.4,0-8,.2-2.5.2-5,.6-7.5,1.1-1,.2-2,.5-3,.8-1.3.4-2.2,1.7-2.1,3.1,0,1.4,1,2.6,2.3,3,.6.2,1.2.2,1.8,0,1-.3,2-.5,3-.8,2.7-.6,5.5-.9,8.3-1,2.4-.1,4.9-.1,7.4,0,2.4.1,4.7.4,7,.8,3.3.6,6.6,1.5,9.8,2.7,1.6.7,3.1,1.4,4.6,2.3"/>
</svg>